<?xml version="1.0" standalone="no"?>
<!DOCTYPE svg PUBLIC "-//W3C//DTD SVG 20010904//EN"
 "http://www.w3.org/TR/2001/REC-SVG-20010904/DTD/svg10.dtd">
<svg version="1.0" xmlns="http://www.w3.org/2000/svg"
 width="200.000000pt" height="200.000000pt" viewBox="0 0 200.000000 200.000000"
 preserveAspectRatio="xMidYMid meet">
<metadata>
Created by potrace 1.14, written by Peter Selinger 2001-2017
</metadata>
<g transform="translate(0.000000,200.000000) scale(0.100000,-0.100000)"
fill="#000000" stroke="none">
<path d="M950 1680 c-342 -73 -632 -319 -705 -601 -21 -77 -16 -204 10 -264
59 -137 195 -227 376 -250 53 -7 56 -8 79 -53 77 -146 252 -231 418 -204 125
21 248 103 316 210 14 23 32 42 40 42 33 0 138 65 185 115 70 74 95 131 95
221 0 60 -4 80 -31 135 -18 35 -51 84 -73 109 l-42 45 36 -46 c95 -122 101
-239 19 -347 -24 -31 -135 -112 -155 -112 -4 0 -8 35 -8 78 -1 49 -8 97 -20
132 l-19 55 37 60 c20 32 46 87 58 120 13 33 28 59 34 57 6 -1 8 3 4 9 -4 6
-7 55 -8 108 -1 81 -6 105 -28 153 -92 199 -336 289 -618 228z m260 -89 c129
-49 209 -127 247 -240 20 -59 20 -67 6 -72 -15 -5 -15 -6 0 -12 13 -5 17 -19
17 -55 0 -49 -22 -148 -41 -183 -10 -19 -13 -18 -55 21 -25 23 -71 54 -102 68
-51 24 -69 27 -167 27 -99 0 -116 -3 -169 -27 -32 -16 -81 -45 -109 -65 l-50
-37 6 33 c24 118 133 214 287 252 73 18 221 16 295 -4 74 -20 85 -14 13 8 -80
25 -258 31 -341 11 -92 -22 -176 -66 -235 -125 -68 -68 -94 -126 -100 -220 -2
-42 -13 -102 -23 -133 -11 -35 -19 -86 -19 -128 0 -69 -1 -71 -22 -64 -151 46
-264 187 -275 341 -20 272 216 546 532 619 85 19 235 12 305 -15z m35 -493
c58 -30 133 -102 142 -136 10 -43 -88 -155 -202 -227 -93 -60 -105 -62 -176
-24 -88 47 -153 109 -188 181 -17 34 -31 69 -31 78 0 21 74 91 121 116 67 34
113 44 199 41 68 -3 95 -9 135 -29z m189 -270 c7 -56 -7 -155 -25 -173 -13
-13 -216 -11 -249 2 l-25 11 34 18 c51 29 182 127 215 163 17 17 33 31 37 31
4 0 10 -24 13 -52z m-690 0 c10 -37 72 -114 125 -157 46 -36 48 -39 28 -45
-43 -11 -153 -6 -172 8 -17 12 -20 27 -20 98 0 84 7 118 24 118 5 0 12 -10 15
-22z m310 -259 c65 -23 118 -33 186 -38 l95 -6 -25 -24 c-140 -133 -370 -138
-501 -12 -27 26 -49 52 -49 58 0 5 44 19 98 30 53 11 99 21 101 22 2 0 45 -13
95 -30z"/>
</g>
</svg>
